External Loads File
version=1
nRows=85
nColumns=13
Range=5.000000e-03-10 seconds
endheader
time 	forceRightX 	forceRightY 	forceRightZ 	pointRightX 	pointRightY 	pointRightZ 	forceLeftX 	forceLeftY 	forceLeftZ 	pointLeftX 	pointLeftY 	pointLeftZ 		
2.505000 60.646589 748.878572 -0.000000 0.334977 0.168236 -0.146495 -46.238945 -103.090832 -0.000000 0.199629 0.491865 -0.377569
2.510000 69.565981 720.329403 -0.000000 0.327752 0.164241 -0.146261 -52.647107 -100.934176 -0.000000 0.207446 0.496241 -0.377590
2.515000 78.883631 692.348311 -0.000000 0.320292 0.160695 -0.146021 -59.176799 -95.638512 -0.000000 0.215456 0.500111 -0.377520
2.520000 88.847128 663.984362 -0.000000 0.312597 0.157675 -0.145803 -65.738414 -86.906896 -0.000000 0.223712 0.503402 -0.377403
2.525000 98.098136 634.296022 -0.000000 0.304754 0.155191 -0.145625 -72.019942 -74.776429 -0.000000 0.231514 0.505957 -0.377386
2.530000 108.239400 601.865596 -0.000000 0.296654 0.153225 -0.145498 -78.113771 -59.097044 -0.000000 0.239616 0.508182 -0.377487
2.535000 118.067129 565.793777 -0.000000 0.288391 0.151854 -0.145481 -83.802509 -40.099169 -0.000000 0.247692 0.509405 -0.377671
2.540000 126.989552 525.451832 -0.000000 0.280000 0.151264 -0.145455 -89.025133 -17.988185 -0.000000 0.255551 0.510350 -0.378116
2.545000 134.510477 480.733002 -0.000000 0.271605 0.151197 -0.145332 -93.816429 7.088912 -0.000000 0.263324 0.510567 -0.378465
2.550000 140.392633 432.105014 -0.000000 0.263173 0.151802 -0.145259 -98.301754 35.074029 -0.000000 0.271155 0.510093 -0.378455
2.555000 143.701044 380.903061 -0.000000 0.254810 0.152971 -0.145254 -102.798007 65.748746 -0.000000 0.278624 0.509156 -0.378739
2.560000 144.579067 328.648877 -0.000000 0.246502 0.154694 -0.145357 -107.751776 99.073248 -0.000000 0.285816 0.507617 -0.379220
2.565000 143.660155 276.881963 -0.000000 0.238152 0.157057 -0.145565 -113.529889 135.075836 -0.000000 0.292867 0.504164 -0.379541
2.570000 140.883052 227.488312 -0.000000 0.229855 0.159975 -0.145758 -120.810283 173.378280 -0.000000 0.299608 0.500887 -0.380001
2.575000 136.959061 181.851810 -0.000000 0.221603 0.163393 -0.145995 -129.981508 213.721403 -0.000000 0.306165 0.496978 -0.380498
2.580000 132.470467 141.152469 -0.000000 0.213466 0.167302 -0.146145 -141.326725 255.678567 -0.000000 0.312596 0.492259 -0.380999
2.585000 127.985215 106.229044 -0.000000 0.205395 0.171638 -0.146247 -154.976151 298.737386 -0.000000 0.318928 0.487015 -0.381433
2.590000 124.067502 77.393767 -0.000000 0.197375 0.176457 -0.146337 -170.620270 342.501672 -0.000000 0.325278 0.481086 -0.381836
2.595000 120.998450 54.687934 -0.000000 0.189643 0.181651 -0.146310 -188.165849 386.355137 -0.000000 0.331617 0.474622 -0.382193
2.600000 118.918054 37.836187 -0.000000 0.182165 0.187456 -0.146498 -207.731115 429.516309 -0.000000 0.337873 0.468901 -0.382476
2.605000 117.933033 25.846197 -0.000000 0.175064 0.193568 -0.146663 -227.762116 471.995873 -0.000000 0.344037 0.461948 -0.382600
2.610000 117.823604 17.918148 -0.000000 0.168376 0.200169 -0.146707 -247.722555 513.329790 -0.000000 0.350008 0.454395 -0.382735
2.615000 118.282653 13.276912 -0.000000 0.162212 0.207163 -0.146641 -267.609535 552.899120 -0.000000 0.355725 0.446715 -0.382779
2.620000 118.995660 10.973549 -0.000000 0.156523 0.214495 -0.146745 -286.790643 590.572999 -0.000000 0.361063 0.438620 -0.382711
2.625000 119.648106 10.030206 -0.000000 0.151327 0.222082 -0.146810 -304.157693 626.661469 -0.000000 0.366677 0.430179 -0.382999
2.630000 119.953146 9.894084 -0.000000 0.146581 0.230227 -0.146871 -320.116211 660.920078 -0.000000 0.371706 0.421383 -0.383110
2.635000 119.763006 9.982411 -0.000000 0.142263 0.238680 -0.146736 -334.198676 693.536561 -0.000000 0.376449 0.412283 -0.383215
2.640000 119.053118 9.786819 -0.000000 0.138458 0.247404 -0.146948 -345.696315 724.627752 -0.000000 0.380900 0.402748 -0.383318
2.645000 117.824278 8.996894 -0.000000 0.135162 0.256317 -0.146965 -354.739930 753.788970 -0.000000 0.384980 0.393054 -0.383469
2.650000 116.043462 7.206102 -0.000000 0.132260 0.265538 -0.147016 -360.606606 781.093712 -0.000000 0.388665 0.383218 -0.383611
2.655000 113.608225 4.149876 -0.000000 0.129751 0.275044 -0.147090 -362.982132 806.565688 -0.000000 0.391880 0.373134 -0.383741
2.660000 110.383502 -0.166042 -0.000000 0.127678 0.284693 -0.147198 -362.938566 829.787420 -0.000000 0.394662 0.363036 -0.383833
2.665000 106.239865 -5.845723 -0.000000 0.126085 0.294599 -0.147312 -360.430392 851.047335 -0.000000 0.396998 0.352895 -0.383986
2.670000 101.041922 -12.814747 -0.000000 0.124962 0.304779 -0.147431 -356.375057 870.348197 -0.000000 0.398935 0.342948 -0.384090
2.675000 94.636959 -21.185539 -0.000000 0.124154 0.315028 -0.147648 -349.209105 888.708741 -0.000000 0.400327 0.332433 -0.384229
2.680000 86.974950 -30.652090 -0.000000 0.123880 0.325530 -0.147798 -339.411015 906.145292 -0.000000 0.401277 0.321704 -0.384327
2.685000 78.265553 -40.613674 -0.000000 0.124032 0.336152 -0.148013 -329.337958 921.873852 -0.000000 0.401624 0.311419 -0.384333
2.690000 68.772865 -50.720844 -0.000000 0.124612 0.346874 -0.148205 -317.919133 936.287735 -0.000000 0.401719 0.301280 -0.384672
2.695000 58.846763 -60.435280 -0.000000 0.125543 0.357411 -0.148379 -305.096390 949.218114 -0.000000 0.400915 0.291186 -0.384336
2.700000 48.795777 -69.182816 -0.000000 0.126940 0.368041 -0.148632 -290.216934 960.521115 -0.000000 0.399715 0.281310 -0.384247
2.705000 38.947563 -76.326884 -0.000000 0.128821 0.378482 -0.148682 -273.202503 969.707704 -0.000000 0.397969 0.271544 -0.384168
2.710000 29.590641 -81.348700 -0.000000 0.131194 0.388816 -0.148897 -253.509779 976.333305 -0.000000 0.395590 0.262004 -0.384059
2.715000 21.062631 -83.926617 -0.000000 0.134303 0.398838 -0.149259 -231.427887 979.754391 -0.000000 0.392715 0.252762 -0.383933
2.720000 13.637037 -84.053360 -0.000000 0.137356 0.408625 -0.149171 -207.180509 979.486413 -0.000000 0.389255 0.243607 -0.383836
2.725000 7.409885 -82.030457 -0.000000 0.141551 0.418071 -0.149498 -180.403275 975.328380 -0.000000 0.385276 0.234919 -0.383753
2.730000 2.372925 -78.369119 -0.000000 0.146059 0.427345 -0.150003 -151.591821 967.093272 -0.000000 0.380769 0.226381 -0.383677
2.735000 -1.570445 -73.653904 -0.000000 0.150918 0.436204 -0.150311 -122.595852 954.645268 -0.000000 0.375808 0.218198 -0.383595
2.740000 -4.795111 -68.365722 -0.000000 0.156109 0.444731 -0.150595 -93.987669 938.287931 -0.000000 0.370412 0.210420 -0.383476
2.745000 -7.716564 -62.737990 -0.000000 0.161363 0.452858 -0.151019 -67.130863 918.347707 -0.000000 0.364600 0.203088 -0.383368
2.750000 -10.986487 -56.656148 -0.000000 0.167807 0.460512 -0.151044 -39.987487 895.381238 -0.000000 0.358370 0.196140 -0.383234
2.755000 -14.810423 -49.753655 -0.000000 0.174060 0.467675 -0.151539 -16.092483 869.517042 -0.000000 0.351765 0.189705 -0.383093
2.760000 -19.604476 -41.409620 -0.000000 0.180814 0.474522 -0.151929 6.207768 841.124420 -0.000000 0.344834 0.183689 -0.382957
2.765000 -25.453409 -30.999399 -0.000000 0.188030 0.480511 -0.152148 25.956526 810.354565 -0.000000 0.337603 0.178206 -0.382817
2.770000 -32.345116 -17.983663 -0.000000 0.195715 0.486135 -0.152448 44.089717 777.193501 -0.000000 0.330053 0.173220 -0.382732
2.775000 -40.029015 -2.148593 -0.000000 0.203638 0.491145 -0.152708 60.091225 741.533632 -0.000000 0.322207 0.168688 -0.382607
2.780000 -48.143058 16.370967 -0.000000 0.211836 0.495478 -0.152855 74.304295 703.124350 -0.000000 0.314062 0.164636 -0.382560
2.785000 -56.221980 37.091864 -0.000000 0.220290 0.499884 -0.153127 87.193458 661.575629 -0.000000 0.305686 0.161198 -0.382447
2.790000 -63.895337 59.156544 -0.000000 0.228869 0.502653 -0.153341 97.821470 616.641411 -0.000000 0.297103 0.158396 -0.382453
2.795000 -70.839707 81.782760 -0.000000 0.237408 0.505187 -0.153626 106.948896 567.939303 -0.000000 0.288247 0.156218 -0.382439
2.800000 -76.953798 104.270514 -0.000000 0.245913 0.507196 -0.153989 114.391998 515.417425 -0.000000 0.279194 0.154533 -0.382370
2.805000 -82.305683 126.218943 -0.000000 0.254353 0.508677 -0.154450 119.950307 459.349208 -0.000000 0.269993 0.153586 -0.382304
2.810000 -87.100960 147.564898 -0.000000 0.262664 0.509259 -0.154888 123.372209 400.394388 -0.000000 0.260710 0.153483 -0.382260
2.815000 -91.669534 168.585625 -0.000000 0.270776 0.509173 -0.155113 124.502793 339.639136 -0.000000 0.251412 0.154001 -0.382128
2.820000 -95.900827 190.140200 -0.000000 0.278660 0.508237 -0.155210 124.118965 278.222384 -0.000000 0.241168 0.155225 -0.381237
2.825000 -101.583216 212.346644 -0.000000 0.286840 0.506648 -0.155194 120.266707 218.782641 -0.000000 0.233057 0.157203 -0.382035
2.830000 -107.855565 236.720990 -0.000000 0.294191 0.504235 -0.155059 115.051153 162.344694 -0.000000 0.223788 0.159871 -0.381986
2.835000 -115.064415 264.020987 -0.000000 0.301720 0.501122 -0.155302 108.405112 110.810117 -0.000000 0.214636 0.163073 -0.381867
2.840000 -123.771260 294.636271 -0.000000 0.309137 0.496957 -0.155142 100.490588 65.885569 -0.000000 0.206013 0.166819 -0.381486
2.845000 -133.154991 329.096649 -0.000000 0.316029 0.492164 -0.155076 91.957910 28.346631 -0.000000 0.196400 0.171062 -0.381579
2.850000 -144.348439 366.598275 -0.000000 0.322947 0.486634 -0.154857 83.150598 -0.926299 -0.000000 0.187840 0.175840 -0.381536
2.855000 -156.519861 406.667724 -0.000000 0.329776 0.480462 -0.154623 74.738129 -22.213981 -0.000000 0.179510 0.181149 -0.381413
2.860000 -169.680081 448.140507 -0.000000 0.336278 0.473774 -0.154243 67.263832 -36.042140 -0.000000 0.171439 0.186950 -0.381417
2.865000 -182.842889 490.048050 -0.000000 0.342994 0.466609 -0.154465 61.104432 -43.455642 -0.000000 0.163722 0.193231 -0.381357
2.870000 -196.088258 531.026430 -0.000000 0.349432 0.458954 -0.154512 56.549378 -45.567368 -0.000000 0.156346 0.200007 -0.381363
2.875000 -209.094257 570.069648 -0.000000 0.355546 0.450867 -0.154526 53.681144 -43.681497 -0.000000 0.149360 0.207321 -0.381311
2.880000 -221.260404 606.582878 -0.000000 0.361512 0.442271 -0.154428 52.400658 -39.119418 -0.000000 0.142798 0.215045 -0.381377
2.885000 -232.731184 640.034536 -0.000000 0.367092 0.433318 -0.154156 52.524837 -33.008463 -0.000000 0.136765 0.223229 -0.381319
2.890000 -242.489656 670.628321 -0.000000 0.372929 0.424226 -0.154317 53.712100 -26.336680 -0.000000 0.131187 0.231807 -0.381261
2.895000 -251.071036 698.244879 -0.000000 0.377999 0.414527 -0.154054 55.635083 -19.686929 -0.000000 0.126203 0.240717 -0.381194
2.900000 -257.532279 723.471515 -0.000000 0.382910 0.404514 -0.153643 57.862547 -13.521592 -0.000000 0.121754 0.249991 -0.381164
2.905000 -262.549253 746.424646 -0.000000 0.387233 0.394281 -0.152416 60.037781 -7.967272 -0.000000 0.117893 0.259532 -0.381065
2.910000 -265.148979 767.850083 -0.000000 0.391688 0.383860 -0.152824 61.873266 -3.112287 -0.000000 0.114612 0.269327 -0.380983
2.915000 -266.021824 787.943838 -0.000000 0.395395 0.373106 -0.152343 63.236714 1.165244 -0.000000 0.111944 0.279344 -0.380759
2.920000 -265.478578 807.064620 -0.000000 0.398681 0.362354 -0.151946 64.126902 4.909935 -0.000000 0.109831 0.289568 -0.380662
2.925000 -262.879564 825.796633 -0.000000 0.401344 0.351419 -0.151503 64.619082 7.975845 -0.000000 0.108385 0.300017 -0.380480
